<?xml version="1.0" encoding="UTF-8" standalone="no"?>
<!-- Created with Inkscape (http://www.inkscape.org/) -->

<svg
   width="208.75613mm"
   height="208.75618mm"
   viewBox="0 0 208.75613 208.75618"
   version="1.1"
   id="svg5"
   xml:space="preserve"
   sodipodi:docname="3.svg"
   inkscape:version="1.2.1 (9c6d41e410, 2022-07-14)"
   xmlns:inkscape="http://www.inkscape.org/namespaces/inkscape"
   xmlns:sodipodi="http://sodipodi.sourceforge.net/DTD/sodipodi-0.dtd"
   xmlns="http://www.w3.org/2000/svg"
   xmlns:svg="http://www.w3.org/2000/svg"><sodipodi:namedview
     id="namedview7"
     pagecolor="#ffffff"
     bordercolor="#000000"
     borderopacity="0.25"
     inkscape:showpageshadow="2"
     inkscape:pageopacity="0.0"
     inkscape:pagecheckerboard="0"
     inkscape:deskcolor="#d1d1d1"
     inkscape:document-units="mm"
     showgrid="false"
     inkscape:zoom="0.53041847"
     inkscape:cx="748.46564"
     inkscape:cy="492.06431"
     inkscape:window-width="1920"
     inkscape:window-height="1017"
     inkscape:window-x="-8"
     inkscape:window-y="-8"
     inkscape:window-maximized="1"
     inkscape:current-layer="svg5" /><defs
     id="defs2" /><rect
     style="fill:#231f20;fill-opacity:1;stroke-width:1.55012;stroke-linecap:round;stroke-linejoin:round;paint-order:markers fill stroke"
     id="rect243"
     width="208.756"
     height="208.756"
     x="6.8664551e-05"
     y="8.392334e-05" /><g
     id="g758"
     transform="translate(49.178122,241.87612)"><circle
       style="fill:#231f20;fill-opacity:1;stroke-width:0.3;stroke-linecap:round;stroke-linejoin:round;paint-order:markers fill stroke"
       id="path389"
       cx="55.199947"
       cy="-137.49805"
       r="104.37808" /><g
       id="g612"
       transform="matrix(1.4817455,0,0,1.4817455,-418.95876,-285.67248)"><g
         id="g194"
         transform="matrix(0.35277776,0,0,-0.35277778,283.64418,103.7366)"><path
           d="M 0,0 18.916,32.763 9.496,49.179 H -29.256 L -38.676,32.763 -19.76,0 Z"
           style="fill:#ed1c24;fill-opacity:1;fill-rule:nonzero;stroke:none"
           id="path196" /></g><g
         id="g198"
         transform="matrix(0.35277776,0,0,-0.35277778,280.15859,96.488642)"><path
           d="m 0,0 -10.393,-7.551 3.97,12.218 -10.393,7.551 H -3.97 L 0,24.436 3.97,12.218 H 16.816 L 6.423,4.667 10.393,-7.551 Z"
           style="fill:#ffffff;fill-opacity:1;fill-rule:nonzero;stroke:none"
           id="path200" /></g><g
         id="g202"
         transform="matrix(0.35277776,0,0,-0.35277778,341.90574,86.387274)"><path
           d="M 0,0 H -35.078 L -44.557,-16.416 -54.034,0 h -35.079 l 27.017,-46.795 -17.539,-30.379 h 35.078 z"
           style="fill:#ffffff;fill-opacity:1;fill-rule:nonzero;stroke:none"
           id="path204" /></g><g
         id="g206"
         transform="matrix(0.35277776,0,0,-0.35277778,300.45192,103.7366)"><path
           d="M 0,0 28.394,49.179 H -6.685 l -34.676,-60.062 9.88,-17.112 H 25.481 L 41.644,0 Z"
           style="fill:#ffffff;fill-opacity:1;fill-rule:nonzero;stroke:none"
           id="path208" /></g><g
         id="g210"
         transform="matrix(0.35277776,0,0,-0.35277778,367.49109,96.52325)"><path
           d="m 0,0 7.112,12.317 -9.418,16.415 h -57.829 l -34.677,-60.062 9.88,-17.112 h 59.444 l 16.284,27.995 h -44.218 l 11.775,20.51 z"
           style="fill:#ffffff;fill-opacity:1;fill-rule:nonzero;stroke:none"
           id="path212" /></g></g></g></svg>
